<?xml version="1.0" encoding="UTF-8"?>
<!-- Tile repetible ~estilo fondo chat WhatsApp (garabatos suaves sobre #e5ddd5) -->
<svg xmlns="http://www.w3.org/2000/svg" width="412" height="412" viewBox="0 0 412 412">
  <defs>
    <pattern id="doodle" patternUnits="userSpaceOnUse" width="412" height="412">
      <rect width="412" height="412" fill="#e5ddd5"/>
      <g fill="none" stroke="#000" stroke-width="1.2" opacity="0.07" stroke-linecap="round" stroke-linejoin="round">
        <circle cx="48" cy="52" r="14"/><path d="M38 52h20M48 42v20"/>
        <rect x="120" y="38" width="22" height="26" rx="3"/>
        <path d="M200 48l8 14h-16z"/>
        <circle cx="280" cy="55" r="8"/>
        <path d="M320 45h24v20h-24zM326 51v8"/>
        <ellipse cx="360" cy="120" rx="18" ry="12"/>
        <path d="M40 130c12-8 28-8 40 0M60 140v20"/>
        <rect x="100" y="118" width="28" height="22" rx="4"/>
        <circle cx="200" cy="128" r="16"/><path d="M192 128h16M200 120v16"/>
        <path d="M260 120h40M270 110v36"/>
        <path d="M340 115l10 18-20 2z"/>
        <circle cx="60" cy="210" r="12"/>
        <path d="M100 200h32a8 8 0 018 8v12a8 8 0 01-8 8h-32a8 8 0 01-8-8v-12a8 8 0 018-8z"/>
        <path d="M180 205h36v24h-36zM186 213h24"/>
        <circle cx="260" cy="218" r="10"/><circle cx="300" cy="218" r="10"/>
        <path d="M340 208c8 0 14 6 14 14s-6 14-14 14-14-6-14-14 6-14 14-14z"/>
        <path d="M30 290h44v8H30zM40 278v36"/>
        <rect x="100" y="275" width="30" height="24" rx="3"/>
        <path d="M180 278l14 24h-28z"/>
        <circle cx="240" cy="290" r="14"/>
        <path d="M290 280h48v20h-48zM298 288h32"/>
        <path d="M360 285c6 0 10 4 10 10s-4 10-10 10"/>
        <circle cx="80" cy="350" r="16"/>
        <path d="M130 340h40v28h-40z"/>
        <path d="M200 345h20v18h-20zM204 349h12"/>
        <circle cx="280" cy="358" r="11"/>
        <path d="M320 348l16 20-32 4z"/>
        <path d="M360 350h32v16h-32z"/>
      </g>
      <g fill="#000" opacity="0.05">
        <circle cx="15" cy="25" r="2"/><circle cx="155" cy="85" r="2.5"/><circle cx="305" cy="35" r="2"/>
        <circle cx="75" cy="175" r="2"/><circle cx="225" cy="195" r="2.5"/><circle cx="375" cy="165" r="2"/>
        <circle cx="35" cy="305" r="2.5"/><circle cx="185" cy="325" r="2"/><circle cx="335" cy="295" r="2"/>
        <circle cx="125" cy="385" r="2"/><circle cx="275" cy="375" r="2.5"/><circle cx="395" cy="355" r="2"/>
      </g>
    </pattern>
  </defs>
  <rect width="412" height="412" fill="url(#doodle)"/>
</svg>
